<svg xmlns="http://www.w3.org/2000/svg" width="106.604" height="103" viewBox="0 0 106.604 103"><defs><style>.a,.f{fill:none;}.a{stroke:#9672fb;}.b{fill:#9672fb;}.c{fill:#d8dce7;}.d{fill:#fcfcfc;}.e{stroke:none;}</style></defs><g transform="translate(-796.491 -697.668)"><g class="a" transform="translate(800.095 697.668)"><circle class="e" cx="51.5" cy="51.5" r="51.5"/><circle class="f" cx="51.5" cy="51.5" r="51"/></g><circle class="b" cx="6.49" cy="6.49" r="6.49" transform="translate(796.491 753.349)"/><circle class="b" cx="8.998" cy="8.998" r="8.998" transform="translate(869.173 700.912)"/><g transform="translate(816.514 716.547)"><path class="b" d="M879.535,755.368a34.194,34.194,0,1,0-16.751,21.4l9.8,2.028a3.643,3.643,0,0,0,4.351-3.105Z" transform="translate(-812.237 -712.515)"/><g transform="translate(13.681 13.68)"><path class="c" d="M864.038,743.8a20.513,20.513,0,0,1-18.895,20.453c-.535.044-1.08.067-1.624.067a20.522,20.522,0,1,1,0-41.044c.544,0,1.089.023,1.624.066A20.519,20.519,0,0,1,864.038,743.8Z" transform="translate(-822.996 -723.273)"/><path class="d" d="M863.345,743.783a18.959,18.959,0,1,1-18.895-20.458A20.513,20.513,0,0,1,863.345,743.783Z" transform="translate(-822.303 -723.259)"/><g transform="translate(8.629 13.866)"><rect class="b" width="24.338" height="12.98" rx="5.104"/><g transform="translate(2.839 3.171)"><circle class="d" cx="3.485" cy="3.485" r="3.485"/><circle class="d" cx="3.485" cy="3.485" r="3.485" transform="translate(10.694)"/></g></g></g></g></g></svg>