<svg xmlns="http://www.w3.org/2000/svg" xmlns:xlink="http://www.w3.org/1999/xlink" width="193.102" height="37" viewBox="0 0 193.102 37"><defs><style>.a,.d{fill:none;}.b,.c{fill:#9672fb;}.b{font-size:30px;font-family:Rubik-Bold, Rubik;font-weight:700;}.d{stroke:#002f87;stroke-miterlimit:10;stroke-width:11.812px;}.e{clip-path:url(#a);}.f{clip-path:url(#b);}.g{clip-path:url(#c);}.h{clip-path:url(#d);}.i{clip-path:url(#e);}.j{clip-path:url(#f);}.k{clip-path:url(#g);}.l{clip-path:url(#h);}.m{clip-path:url(#i);}</style><clipPath id="a"><path class="a" d="M-2767.152,4419.259l4.147,6.537,2.784,1.5v-9.411Z" transform="translate(2767.152 -4417.881)"/></clipPath><clipPath id="b"><path class="a" d="M-2605.5,4393.12v10.268h4.528l-.386-13.024Z" transform="translate(2605.496 -4390.364)"/></clipPath><clipPath id="c"><path class="a" d="M-2496.479,4343.521v10.786l3.452-.981v-13.6Z" transform="translate(2496.479 -4339.721)"/></clipPath><clipPath id="d"><path class="a" d="M-2403.371,4235.99v13.684l3.53-3.53-.295-15.371Z" transform="translate(2403.371 -4230.772)"/></clipPath><clipPath id="e"><path class="a" d="M-2315.687,4096.395v14.747l4.47-6.182v-16.185Z" transform="translate(2315.687 -4088.775)"/></clipPath><clipPath id="f"><path class="a" d="M-2197.059,4070.6l.1,10.435,3.743-1.852v-12.361Z" transform="translate(2197.059 -4066.827)"/></clipPath><clipPath id="g"><path class="a" d="M-2080.047,4044.451v11.42l3.452-1.174v-11.033Z" transform="translate(2080.047 -4043.664)"/></clipPath><clipPath id="h"><path class="a" d="M-1975.769,3994.825v12.6h3.161v-13.29Z" transform="translate(1975.769 -3994.135)"/></clipPath><clipPath id="i"><path class="a" d="M-1876.909,4076.684v10.041l4.9,1.378.984-4.012Z" transform="translate(1876.909 -4076.684)"/></clipPath></defs><g transform="translate(-114.898 -133)"><text class="b" transform="translate(195 162)"><tspan x="0" y="0">Pennee</tspan></text><g transform="translate(114.898 133)"><path class="c" d="M-2888.675,4138.184c-.275.486-7.365,2.37-11.256-4.486a14.242,14.242,0,0,1-1.651-8.731,15.731,15.731,0,0,1,7.331-11.152c6.034-3.648,16.915-1.722,21.815,4.657l-.262,2.192a15.168,15.168,0,0,0-1.441-1.018c-1.42-.884-6.668-4.257-12.683-4.01-4.776.2-9.858,4.689-10.89,10a10.73,10.73,0,0,0,.89,6.79C-2893.714,4137.808-2888.425,4137.741-2888.675,4138.184Z" transform="translate(2901.701 -4105.189)"/><path class="a" d="M-2715.206,4133.345c-.312.7,4.747,5.512,10.32,4.894,3.363-.374,6.051-3.129,11.289-8.625,6.35-6.661,6.534-8.458,10.369-10.32a16.458,16.458,0,0,1,10.708-1.5c4,.87,6.213,3.572,6.541,3.2.369-.422-1.973-4.287-5.96-6.008-4.735-2.044-9.6-.121-11.87.775-2.142.846-3.373,1.945-11.968,10.756-5.8,5.942-6.983,7.289-9.594,7.946C-2710.563,4135.765-2714.928,4132.716-2715.206,4133.345Z" transform="translate(2725.227 -4107.17)"/><path class="c" d="M-2170.349,4120.75c.408-.389,6.61,2.907,8.167,9.247a16.932,16.932,0,0,1-.488,9.519c-2.053,4.511-6.764,7.036-10.88,8.067-6.849,1.713-14.342.13-18.729-7.15l.117-2.822a11.581,11.581,0,0,0,1.274,1.135c1.534,1.2,5.617,5.161,11.383,5.55,6.037.407,10.566-1.056,13.14-5.9,1.565-2.946.941-7.138.838-8.1C-2166.162,4124.385-2170.72,4121.1-2170.349,4120.75Z" transform="translate(2230.351 -4113.456)"/><circle class="c" cx="4.37" cy="4.37" r="4.37" transform="translate(29.42)"/><path class="d" d="M-2632.071,4487.713" transform="translate(2646.541 -4460.754)"/><g transform="translate(7.221 23.21)"><g class="e" transform="translate(0 0)"><path class="c" d="M-2715.206,4133.345c-.312.7,4.747,5.512,10.32,4.894,3.363-.374,6.051-3.129,11.289-8.625,6.35-6.661,6.534-8.458,10.369-10.32a16.458,16.458,0,0,1,10.708-1.5c4,.87,6.213,3.572,6.541,3.2.369-.422-1.973-4.287-5.96-6.008-4.735-2.044-9.6-.121-11.87.775-2.142.846-3.373,1.945-11.968,10.756-5.8,5.942-6.983,7.289-9.594,7.946C-2710.563,4135.765-2714.928,4132.716-2715.206,4133.345Z" transform="translate(2718.006 -4130.378)"/></g></g><g transform="translate(15.896 21.733)"><g class="f" transform="translate(0 0)"><path class="c" d="M-2715.206,4133.345c-.312.7,4.747,5.512,10.32,4.894,3.363-.374,6.051-3.129,11.289-8.625,6.35-6.661,6.534-8.458,10.369-10.32a16.458,16.458,0,0,1,10.708-1.5c4,.87,6.213,3.572,6.541,3.2.369-.422-1.973-4.287-5.96-6.008-4.735-2.044-9.6-.121-11.87.775-2.142.846-3.373,1.945-11.968,10.756-5.8,5.942-6.983,7.289-9.594,7.946C-2710.563,4135.765-2714.928,4132.716-2715.206,4133.345Z" transform="translate(2709.331 -4128.902)"/></g></g><g transform="translate(21.746 19.017)"><g class="g" transform="translate(0 0)"><path class="c" d="M-2715.206,4133.345c-.312.7,4.747,5.512,10.32,4.894,3.363-.374,6.051-3.129,11.289-8.625,6.35-6.661,6.534-8.458,10.369-10.32a16.458,16.458,0,0,1,10.708-1.5c4,.87,6.213,3.572,6.541,3.2.369-.422-1.973-4.287-5.96-6.008-4.735-2.044-9.6-.121-11.87.775-2.142.846-3.373,1.945-11.968,10.756-5.8,5.942-6.983,7.289-9.594,7.946C-2710.563,4135.765-2714.928,4132.716-2715.206,4133.345Z" transform="translate(2703.48 -4126.184)"/></g></g><g transform="translate(26.743 13.17)"><g class="h" transform="translate(0 0)"><path class="c" d="M-2715.206,4133.345c-.312.7,4.747,5.512,10.32,4.894,3.363-.374,6.051-3.129,11.289-8.625,6.35-6.661,6.534-8.458,10.369-10.32a16.458,16.458,0,0,1,10.708-1.5c4,.87,6.213,3.572,6.541,3.2.369-.422-1.973-4.287-5.96-6.008-4.735-2.044-9.6-.121-11.87.775-2.142.846-3.373,1.945-11.968,10.756-5.8,5.942-6.983,7.289-9.594,7.946C-2710.563,4135.765-2714.928,4132.716-2715.206,4133.345Z" transform="translate(2698.484 -4120.337)"/></g></g><g transform="translate(31.449 5.55)"><g class="i" transform="translate(0 0)"><path class="c" d="M-2715.206,4133.345c-.312.7,4.747,5.512,10.32,4.894,3.363-.374,6.051-3.129,11.289-8.625,6.35-6.661,6.534-8.458,10.369-10.32a16.458,16.458,0,0,1,10.708-1.5c4,.87,6.213,3.572,6.541,3.2.369-.422-1.973-4.287-5.96-6.008-4.735-2.044-9.6-.121-11.87.775-2.142.846-3.373,1.945-11.968,10.756-5.8,5.942-6.983,7.289-9.594,7.946C-2710.563,4135.765-2714.928,4132.716-2715.206,4133.345Z" transform="translate(2693.778 -4112.717)"/></g></g><g transform="translate(37.815 4.37)"><g class="j" transform="translate(0 0)"><path class="c" d="M-2715.206,4133.345c-.312.7,4.747,5.512,10.32,4.894,3.363-.374,6.051-3.129,11.289-8.625,6.35-6.661,6.534-8.458,10.369-10.32a16.458,16.458,0,0,1,10.708-1.5c4,.87,6.213,3.572,6.541,3.2.369-.422-1.973-4.287-5.96-6.008-4.735-2.044-9.6-.121-11.87.775-2.142.846-3.373,1.945-11.968,10.756-5.8,5.942-6.983,7.289-9.594,7.946C-2710.563,4135.765-2714.928,4132.716-2715.206,4133.345Z" transform="translate(2687.412 -4111.539)"/></g></g><g transform="translate(44.095 3.127)"><g class="k" transform="translate(0 0)"><path class="c" d="M-2715.206,4133.345c-.312.7,4.747,5.512,10.32,4.894,3.363-.374,6.051-3.129,11.289-8.625,6.35-6.661,6.534-8.458,10.369-10.32a16.461,16.461,0,0,1,10.708-1.5c4,.87,6.213,3.572,6.541,3.2.369-.422-1.973-4.287-5.96-6.008-4.735-2.044-9.6-.121-11.87.775-2.142.846-3.373,1.945-11.968,10.756-5.8,5.942-6.983,7.289-9.594,7.946C-2710.563,4135.765-2714.928,4132.716-2715.206,4133.345Z" transform="translate(2681.132 -4110.296)"/></g></g><g transform="translate(49.691 0.47)"><g class="l" transform="translate(0 0)"><path class="c" d="M-2715.206,4133.345c-.312.7,4.747,5.512,10.32,4.894,3.363-.374,6.051-3.129,11.289-8.625,6.35-6.661,6.534-8.458,10.369-10.32a16.458,16.458,0,0,1,10.708-1.5c4,.87,6.213,3.572,6.541,3.2.369-.422-1.973-4.287-5.96-6.008-4.735-2.044-9.6-.121-11.87.775-2.142.846-3.373,1.945-11.968,10.756-5.8,5.942-6.983,7.289-9.594,7.946C-2710.563,4135.765-2714.928,4132.716-2715.206,4133.345Z" transform="translate(2675.536 -4107.639)"/></g></g><g transform="translate(54.997 4.899)"><g class="m" transform="translate(0 0)"><path class="c" d="M-2715.206,4133.345c-.312.7,4.747,5.512,10.32,4.894,3.363-.374,6.051-3.129,11.289-8.625,6.35-6.661,6.534-8.458,10.369-10.32a16.458,16.458,0,0,1,10.708-1.5c4,.87,6.213,3.572,6.541,3.2.369-.422-1.973-4.287-5.96-6.008-4.735-2.044-9.6-.121-11.87.775-2.142.846-3.373,1.945-11.968,10.756-5.8,5.942-6.983,7.289-9.594,7.946C-2710.563,4135.765-2714.928,4132.716-2715.206,4133.345Z" transform="translate(2670.23 -4112.068)"/></g></g></g></g></svg>